<mxfile host="Electron" modified="2024-07-04T11:40:04.478Z" agent="Mozilla/5.0 (X11; Linux x86_64) AppleWebKit/537.36 (KHTML, like Gecko) draw.io/24.4.8 Chrome/124.0.6367.207 Electron/30.0.6 Safari/537.36" etag="C4RVexIF2GTiKcfDjX2s" version="24.4.8" type="device">
  <diagram name="Page-1" id="6dybAPNO0v_2thbJNiPc">
    <mxGraphModel dx="502" dy="537" grid="1" gridSize="10" guides="1" tooltips="1" connect="1" arrows="1" fold="1" page="1" pageScale="1" pageWidth="850" pageHeight="1100" math="0" shadow="0">
      <root>
        <mxCell id="0" />
        <mxCell id="1" parent="0" />
        <mxCell id="mRrTCTHmgLsbE8t187QV-3" value="add_path(local, remote)&lt;div&gt;&lt;br&gt;&lt;/div&gt;&lt;div&gt;send_candidates([ ]cand)&lt;/div&gt;&lt;div&gt;&lt;span style=&quot;background-color: initial;&quot;&gt;&lt;br&gt;&lt;/span&gt;&lt;/div&gt;&lt;div&gt;&lt;span style=&quot;background-color: initial;&quot;&gt;send_synchronize()&lt;/span&gt;&lt;br&gt;&lt;/div&gt;" style="rounded=1;whiteSpace=wrap;html=1;" vertex="1" parent="1">
          <mxGeometry x="40" y="40" width="150" height="210" as="geometry" />
        </mxCell>
        <mxCell id="mRrTCTHmgLsbE8t187QV-4" value="QUIC" style="text;html=1;align=center;verticalAlign=middle;resizable=0;points=[];autosize=1;strokeColor=none;fillColor=none;fontStyle=1;fontSize=14;" vertex="1" parent="1">
          <mxGeometry x="35" y="40" width="60" height="30" as="geometry" />
        </mxCell>
        <mxCell id="mRrTCTHmgLsbE8t187QV-6" value="&lt;div&gt;configure(timeouts, stun_srv, stun_interval)&lt;/div&gt;&lt;div&gt;&lt;br&gt;&lt;/div&gt;&lt;div&gt;start() / restart()&lt;/div&gt;&lt;div&gt;&amp;nbsp;&lt;/div&gt;exclude_path(&lt;div&gt;local_ip, remote_ip)&lt;/div&gt;&lt;div&gt;&lt;br&gt;&lt;/div&gt;&lt;div&gt;include_path(local_ip, remote_ip)&lt;/div&gt;" style="rounded=1;whiteSpace=wrap;html=1;" vertex="1" parent="1">
          <mxGeometry x="240" y="40" width="170" height="210" as="geometry" />
        </mxCell>
        <mxCell id="mRrTCTHmgLsbE8t187QV-7" value="ICE Agent" style="text;html=1;align=center;verticalAlign=middle;resizable=0;points=[];autosize=1;strokeColor=none;fillColor=none;fontStyle=1;fontSize=14;" vertex="1" parent="1">
          <mxGeometry x="240" y="40" width="90" height="30" as="geometry" />
        </mxCell>
      </root>
    </mxGraphModel>
  </diagram>
</mxfile>
